# xmcd
#
# Track frame offsets:
#	150
#	20697
#	21315
#	35006
#	47262
#	47860
#	62989
#	76498
#	77033
#	94770
#	108621
#	125647
#	141950
#	156048
#	156417
#
# Disc length: 2301 seconds
#
# Revision: 1
# Processed by: cddbd v1.5.2PL0 Copyright (c) Steve Scherf et al.
# Submitted via: audiograbber 1.83.01
#
DISCID=ce08fb0f
DTITLE=Hillcrest - Hillcrest Pure Country 16
DYEAR=1900
DGENRE=
TTITLE0=Flying To Close - Desi Kay and Brent Howard
TTITLE1=Talking Bout The Song - Danny Mack
TTITLE2=You Beat Me To The Door - Danny Mack
TTITLE3=A Hundred Years From Now - Larry Ford
TTITLE4=Radio Id - Clelia Adams
TTITLE5=Speed Of The Sound Of Loneliness - Clelia Adams
TTITLE6=Skeletons - Skeletons
TTITLE7=Radio Id - Gary Fjellgaard
TTITLE8=Winds Of October - Gary Fjellgaard
TTITLE9=Making´ Some Time For You - Sherry Kennedy
TTITLE10=It Feels Forever - Eric Harris
TTITLE11=Freight Train Dreams - Chad Cline
TTITLE12=I´m Bound For Home - Arly
TTITLE13=Radio Id - Cori Chandler
TTITLE14=Christmas Love - Cori Chandler
EXTD=
EXTT0=
EXTT1=
EXTT2=
EXTT3=
EXTT4=
EXTT5=
EXTT6=
EXTT7=
EXTT8=
EXTT9=
EXTT10=
EXTT11=
EXTT12=
EXTT13=
EXTT14=
PLAYORDER=
